<svg viewBox="0 0 512 512" width="512" height="512" xmlns="http://www.w3.org/2000/svg" xmlns:bx="https://boxy-svg.com">
  <defs>
    <linearGradient gradientUnits="userSpaceOnUse" x1="229.602" y1="-27.231" x2="229.602" y2="484.769" id="gradient-0" gradientTransform="matrix(0.780601, -0.625039, 0.659662, 0.823864, -66.080435, 213.528815)" spreadMethod="pad">
      <stop offset="0" style="stop-color: rgb(39, 166, 234);"/>
      <stop offset="1" style="stop-color: rgb(39, 117, 234);"/>
    </linearGradient>
    <filter id="gaussian-blur-filter-0" color-interpolation-filters="sRGB" x="-500%" y="-500%" width="1000%" height="1000%" bx:preset="gaussian-blur 1 10">
      <feGaussianBlur stdDeviation="10 10" edgeMode="none"/>
    </filter>
    <filter id="gaussian-blur-filter-1" color-interpolation-filters="sRGB" x="-500%" y="-500%" width="1000%" height="1000%" bx:preset="gaussian-blur 1 10">
      <feGaussianBlur stdDeviation="10 10" edgeMode="none"/>
    </filter>
    <filter id="gaussian-blur-filter-2" color-interpolation-filters="sRGB" x="-500%" y="-500%" width="1000%" height="1000%" bx:preset="gaussian-blur 1 10">
      <feGaussianBlur stdDeviation="10 10" edgeMode="none"/>
    </filter>
    <linearGradient gradientUnits="userSpaceOnUse" x1="221.084" y1="162.815" x2="221.084" y2="349.184" id="gradient-2" gradientTransform="matrix(0.854055, 0.95803, -2.143491, 1.910908, 490.183929, -357.690125)">
      <stop offset="0" style="stop-color: rgba(255, 255, 255, 1)"/>
      <stop offset="1" style="stop-color: rgba(204, 204, 204, 1)"/>
    </linearGradient>
  </defs>
  <path d="M 164.267 512 C 118.281 512 79.407 496.119 47.644 464.356 C 15.881 432.592 0 393.719 0 347.733 L 0 164.267 C 0 118.281 15.881 79.408 47.644 47.644 C 79.407 15.881 118.281 0 164.267 0 L 347.733 0 C 393.718 0 432.592 15.881 464.356 47.644 C 496.118 79.408 512 118.281 512 164.267 L 512 347.733 C 512 393.719 496.118 432.592 464.356 464.356 C 432.592 496.119 393.718 512 347.733 512 L 164.267 512 Z M 256 256 Z" style="fill: url(#gradient-0); paint-order: fill;">
    <title>BG</title>
  </path>
  <path d="M 96.998 371.184 C 87.584 371.184 79.641 367.948 73.167 361.475 C 66.695 355.003 63.459 347.206 63.459 338.086 C 63.459 328.964 66.695 321.169 73.167 314.695 C 79.641 308.223 87.584 304.987 96.998 304.987 C 106.119 304.987 113.915 308.223 120.387 314.695 C 126.861 321.169 130.096 328.964 130.096 338.086 C 130.096 347.206 126.861 355.003 120.387 361.475 C 113.915 367.948 106.119 371.184 96.998 371.184 Z M 264.681 375.597 C 237.614 375.597 215.989 369.639 199.807 357.724 C 183.627 345.808 172.447 331.613 166.269 315.137 L 209.075 296.601 C 214.372 308.664 221.947 317.859 231.804 324.184 C 241.659 330.51 252.618 333.672 264.681 333.672 C 276.155 333.672 286.452 331.539 295.572 327.273 C 304.692 323.007 309.254 316.02 309.254 306.31 C 309.254 296.896 304.988 289.981 296.455 285.569 C 287.923 281.155 277.332 277.33 264.681 274.095 L 237.761 267.916 C 226.875 265.269 216.724 261.149 207.31 255.56 C 197.895 249.969 190.246 242.688 184.363 233.714 C 178.478 224.74 175.536 214.223 175.536 202.16 C 175.536 188.92 179.507 177.373 187.452 167.516 C 195.395 157.66 205.913 150.011 219.005 144.568 C 232.097 139.125 246.292 136.404 261.592 136.404 C 282.48 136.404 300.795 140.449 316.535 148.54 C 332.275 156.631 343.823 168.767 351.177 184.949 L 310.136 203.484 C 304.84 193.481 297.999 186.493 289.615 182.522 C 281.23 178.549 272.035 176.563 262.032 176.563 C 251.148 176.563 241.88 178.917 234.231 183.624 C 226.581 188.332 222.757 194.216 222.757 201.277 C 222.757 208.927 226.067 214.958 232.685 219.37 C 239.305 223.784 247.469 227.315 257.178 229.963 L 289.835 237.906 C 312.195 243.497 328.965 251.956 340.145 263.282 C 351.325 274.61 356.916 288.364 356.916 304.546 C 356.916 318.961 352.796 331.539 344.559 342.278 C 336.32 353.017 325.215 361.254 311.239 366.991 C 297.264 372.728 281.745 375.597 264.681 375.597 Z" style="white-space: pre; fill-rule: nonzero; filter: url(#gaussian-blur-filter-0) url(#gaussian-blur-filter-1) url(#gaussian-blur-filter-2); fill: rgba(0, 0, 0, 0.2);">
    <title>Shadow</title>
  </path>
  <path d="M 96.998 371.184 C 87.584 371.184 79.641 367.948 73.167 361.475 C 66.695 355.003 63.459 347.206 63.459 338.086 C 63.459 328.964 66.695 321.169 73.167 314.695 C 79.641 308.223 87.584 304.987 96.998 304.987 C 106.119 304.987 113.915 308.223 120.387 314.695 C 126.861 321.169 130.096 328.964 130.096 338.086 C 130.096 347.206 126.861 355.003 120.387 361.475 C 113.915 367.948 106.119 371.184 96.998 371.184 Z M 264.681 375.597 C 237.614 375.597 215.989 369.639 199.807 357.724 C 183.627 345.808 172.447 331.613 166.269 315.137 L 209.075 296.601 C 214.372 308.664 221.947 317.859 231.804 324.184 C 241.659 330.51 252.618 333.672 264.681 333.672 C 276.155 333.672 286.452 331.539 295.572 327.273 C 304.692 323.007 309.254 316.02 309.254 306.31 C 309.254 296.896 304.988 289.981 296.455 285.569 C 287.923 281.155 277.332 277.33 264.681 274.095 L 237.761 267.916 C 226.875 265.269 216.724 261.149 207.31 255.56 C 197.895 249.969 190.246 242.688 184.363 233.714 C 178.478 224.74 175.536 214.223 175.536 202.16 C 175.536 188.92 179.507 177.373 187.452 167.516 C 195.395 157.66 205.913 150.011 219.005 144.568 C 232.097 139.125 246.292 136.404 261.592 136.404 C 282.48 136.404 300.795 140.449 316.535 148.54 C 332.275 156.631 343.823 168.767 351.177 184.949 L 310.136 203.484 C 304.84 193.481 297.999 186.493 289.615 182.522 C 281.23 178.549 272.035 176.563 262.032 176.563 C 251.148 176.563 241.88 178.917 234.231 183.624 C 226.581 188.332 222.757 194.216 222.757 201.277 C 222.757 208.927 226.067 214.958 232.685 219.37 C 239.305 223.784 247.469 227.315 257.178 229.963 L 289.835 237.906 C 312.195 243.497 328.965 251.956 340.145 263.282 C 351.325 274.61 356.916 288.364 356.916 304.546 C 356.916 318.961 352.796 331.539 344.559 342.278 C 336.32 353.017 325.215 361.254 311.239 366.991 C 297.264 372.728 281.745 375.597 264.681 375.597 Z" style="white-space: pre; fill-rule: nonzero; fill: url(#gradient-2);">
    <title>Text</title>
  </path>
</svg>
