
<svg width="512px" height="512px" viewBox="0 0 512 512" version="1.1" xmlns="http://www.w3.org/2000/svg" xmlns:xlink="http://www.w3.org/1999/xlink">
    <defs>
        <linearGradient x1="4.2535305%" y1="13.3328497%" x2="100%" y2="86.6802812%" id="linearGradient--va6_-s9ww-1">
            <stop stop-color="#0094F3" offset="0%"></stop>
            <stop stop-color="#005BE2" offset="100%"></stop>
        </linearGradient>
        <linearGradient x1="100%" y1="21.7938102%" x2="9.49137725%" y2="73.1972139%" id="linearGradient--va6_-s9ww-2">
            <stop stop-color="#F6F6F6" offset="0%"></stop>
            <stop stop-color="#FFFFFF" offset="100%"></stop>
        </linearGradient>
        <path d="M33.7841797,205.992188 C52.59375,205.992188 67.7509766,190.834961 67.7509766,172.025391 C67.7509766,153.21582 52.59375,138.058594 33.7841797,138.058594 C14.9746094,138.058594 0,153.21582 0,172.025391 C0,190.834961 14.9746094,205.992188 33.7841797,205.992188 Z M185.017183,208.366211 C240.350191,208.366211 277.42148,182.069336 277.42148,140.432617 C277.42148,110.666016 258.977144,94.4130859 216.244722,86.0126953 L181.730074,79.2558594 C162.737886,75.4208984 156.711519,69.9423828 156.711519,61.359375 C156.711519,50.5849609 167.303316,43.6455078 183.008394,43.6455078 C202.000582,43.6455078 211.86191,53.8720703 221.723238,63.7333984 C227.201753,68.8466797 236.51523,71.7685547 243.819918,71.7685547 C260.620699,71.7685547 268.473238,62.6376953 268.473238,50.2197266 C268.473238,47.1152344 267.925386,44.0107422 266.829683,40.90625 C259.707613,18.9921875 229.027925,0 183.556246,0 C128.588472,0 94.4390582,25.0185547 94.4390582,65.0117188 C94.4390582,95.1435547 114.709566,115.779297 153.972261,123.449219 L188.669527,130.388672 C206.748628,134.041016 213.14023,138.789062 213.14023,147.554688 C213.14023,158.329102 202.365816,164.720703 185.565035,164.720703 C167.485933,164.720703 155.067964,159.242188 144.110933,147.189453 C134.797457,138.058594 126.214449,133.858398 115.987886,133.858398 C101.378511,133.858398 90.7867144,143.902344 90.7867144,158.146484 C90.7867144,161.433594 91.6998003,165.268555 93.1607378,169.103516 C102.474214,191.930664 134.249605,208.366211 185.017183,208.366211 Z" id="path--va6_-s9ww-3"></path>
        <filter x="-15.3%" y="-18.5%" width="130.6%" height="140.8%" filterUnits="objectBoundingBox" id="filter--va6_-s9ww-4">
            <feOffset dx="0" dy="4" in="SourceAlpha" result="shadowOffsetOuter1"></feOffset>
            <feGaussianBlur stdDeviation="13.5" in="shadowOffsetOuter1" result="shadowBlurOuter1"></feGaussianBlur>
            <feColorMatrix values="0 0 0 0 0   0 0 0 0 0   0 0 0 0 0  0 0 0 0.221497009 0" type="matrix" in="shadowBlurOuter1"></feColorMatrix>
        </filter>
    </defs>
    <g id="Page-2" stroke="none" stroke-width="1" fill="none" fill-rule="evenodd">
        <g id="Group-2">
            <path d="M231.214793,-6.46885261e-15 L280.785207,6.46885261e-15 C344.098896,-5.1616834e-15 379.790138,9.09690989 411.730879,26.179005 C443.67162,43.2611 468.7389,68.3283803 485.820995,100.269121 C502.90309,132.209862 512,167.901104 512,231.214793 L512,280.785207 C512,344.098896 502.90309,379.790138 485.820995,411.730879 C468.7389,443.67162 443.67162,468.7389 411.730879,485.820995 C379.790138,502.90309 344.098896,512 280.785207,512 L231.214793,512 C167.901104,512 132.209862,502.90309 100.269121,485.820995 C68.3283803,468.7389 43.2611,443.67162 26.179005,411.730879 C9.09690989,379.790138 3.44112227e-15,344.098896 -4.31256841e-15,280.785207 L4.31256841e-15,231.214793 C-3.44112227e-15,167.901104 9.09690989,132.209862 26.179005,100.269121 C43.2611,68.3283803 68.3283803,43.2611 100.269121,26.179005 C132.209862,9.09690989 167.901104,5.1616834e-15 231.214793,-6.46885261e-15 Z" id="Rectangle" fill="url(#linearGradient--va6_-s9ww-1)"></path>
            <g id=".s" transform="translate(92.091610, 146.381836)" fill-rule="nonzero">
                <g id="Combined-Shape">
                    <use fill="black" fill-opacity="1" filter="url(#filter--va6_-s9ww-4)" xlink:href="#path--va6_-s9ww-3"></use>
                    <use fill="url(#linearGradient--va6_-s9ww-2)" xlink:href="#path--va6_-s9ww-3"></use>
                </g>
            </g>
        </g>
    </g>
</svg>