
<svg width="512px" height="512px" viewBox="0 0 512 512" version="1.1" xmlns="http://www.w3.org/2000/svg" xmlns:xlink="http://www.w3.org/1999/xlink">
    <g id="Page-2" stroke="none" stroke-width="1" fill="none" fill-rule="evenodd">
        <g id="logo" fill="#000000" fill-rule="nonzero">
            <g id="Group">
                <path d="M231.214793,0 L280.785207,0 C344.098896,0 379.790138,9.09690989 411.730879,26.179005 C443.67162,43.2611 468.7389,68.3283803 485.820995,100.269121 C502.90309,132.209862 512,167.901104 512,231.214793 L512,280.785207 C512,344.098896 502.90309,379.790138 485.820995,411.730879 C468.7389,443.67162 443.67162,468.7389 411.730879,485.820995 C379.790138,502.90309 344.098896,512 280.785207,512 L231.214793,512 C167.901104,512 132.209862,502.90309 100.269121,485.820995 C68.3283803,468.7389 43.2611,443.67162 26.179005,411.730879 C9.09690989,379.790138 0,344.098896 0,280.785207 L0,231.214793 C0,167.901104 9.09690989,132.209862 26.179005,100.269121 C43.2611,68.3283803 68.3283803,43.2611 100.269121,26.179005 C132.209862,9.09690989 167.901104,0 231.214793,0 Z M125.87579,352.374023 C144.68536,352.374023 159.842587,337.216797 159.842587,318.407227 C159.842587,299.597656 144.68536,284.44043 125.87579,284.44043 C107.06622,284.44043 92.0916102,299.597656 92.0916102,318.407227 C92.0916102,337.216797 107.06622,352.374023 125.87579,352.374023 Z M277.108793,354.748047 C332.441801,354.748047 369.51309,328.451172 369.51309,286.814453 C369.51309,257.047852 351.068754,240.794922 308.336332,232.394531 L273.821684,225.637695 C254.829497,221.802734 248.803129,216.324219 248.803129,207.741211 C248.803129,196.966797 259.394926,190.027344 275.100004,190.027344 C294.092192,190.027344 303.95352,200.253906 313.814848,210.115234 C319.293364,215.228516 328.60684,218.150391 335.911528,218.150391 C352.712309,218.150391 360.564848,209.019531 360.564848,196.601562 C360.564848,193.49707 360.016997,190.392578 358.921293,187.288086 C351.799223,165.374023 321.119536,146.381836 275.647856,146.381836 C220.680082,146.381836 186.530668,171.400391 186.530668,211.393555 C186.530668,241.525391 206.801176,262.161133 246.063872,269.831055 L280.761137,276.770508 C298.840239,280.422852 305.23184,285.170898 305.23184,293.936523 C305.23184,304.710938 294.457426,311.102539 277.656645,311.102539 C259.577543,311.102539 247.159575,305.624023 236.202543,293.571289 C226.889067,284.44043 218.306059,280.240234 208.079497,280.240234 C193.470122,280.240234 182.878325,290.28418 182.878325,304.52832 C182.878325,307.81543 183.791411,311.650391 185.252348,315.485352 C194.565825,338.3125 226.341215,354.748047 277.108793,354.748047 Z" id="Shape"></path>
            </g>
        </g>
    </g>
</svg>